<?xml version="1.0" standalone="no"?>
<!DOCTYPE svg PUBLIC "-//W3C//DTD SVG 20010904//EN"
 "http://www.w3.org/TR/2001/REC-SVG-20010904/DTD/svg10.dtd">
<svg version="1.0" xmlns="http://www.w3.org/2000/svg"
 width="4170.000000pt" height="1488.000000pt" viewBox="0 0 4170.000000 1488.000000"
 preserveAspectRatio="xMidYMid meet">

<g transform="translate(0.000000,1488.000000) scale(0.100000,-0.100000)"
fill="#000000" stroke="none">
<path d="M0 7440 l0 -7440 20850 0 20850 0 0 7440 0 7440 -20850 0 -20850 0 0
-7440z m33248 -3190 c118 -13 242 -43 342 -82 218 -86 394 -252 473 -448 50
-123 60 -183 61 -360 l1 -165 -215 0 -215 0 -6 145 c-7 158 -15 196 -62 283
-53 101 -164 178 -314 218 -113 31 -345 31 -456 1 -144 -39 -241 -112 -294
-219 -21 -45 -28 -74 -31 -143 -7 -153 37 -247 153 -325 92 -62 201 -99 508
-176 155 -39 331 -89 392 -111 392 -144 565 -325 606 -636 29 -219 -33 -454
-163 -616 -129 -160 -319 -270 -568 -328 -125 -29 -408 -36 -558 -14 -556 82
-887 453 -879 986 l2 95 215 0 215 0 6 -110 c7 -135 21 -199 65 -291 60 -127
190 -227 359 -276 70 -20 102 -23 255 -23 193 1 251 11 368 67 80 37 170 125
206 199 36 76 52 179 38 259 -37 208 -171 286 -717 420 -251 62 -364 97 -491
155 -225 103 -376 266 -431 467 -14 48 -18 101 -18 223 0 181 15 249 83 380
160 305 591 476 1070 425z m-23083 -345 l0 -290 -480 -287 c-444 -266 -480
-289 -483 -316 l-3 -29 173 -6 c183 -5 260 -20 402 -73 149 -57 300 -189 371
-326 61 -116 78 -199 78 -388 0 -144 -4 -177 -26 -261 -63 -239 -212 -423
-437 -538 -173 -88 -305 -120 -531 -128 -253 -9 -443 25 -627 112 -122 58
-203 116 -288 208 -152 164 -224 350 -227 587 l-2 125 210 0 210 0 7 -94 c13
-166 52 -262 147 -363 104 -110 229 -168 408 -188 319 -35 572 80 682 310 l36
75 0 150 c0 144 -1 152 -29 212 -50 109 -154 186 -318 234 -67 20 -103 23
-413 28 l-340 6 -3 239 c-1 151 1 243 8 251 5 7 235 144 510 306 466 274 500
296 500 321 l0 28 -772 2 -773 3 -3 180 c-1 98 0 185 2 192 4 11 197 13 1008
11 l1003 -3 0 -290z m2393 -1 l2 -292 -477 -284 c-453 -269 -478 -286 -481
-315 l-3 -30 168 -6 c215 -8 325 -32 468 -105 179 -90 309 -246 361 -433 15
-51 18 -102 19 -249 0 -218 -10 -270 -86 -427 -39 -82 -64 -117 -130 -187
-165 -174 -370 -272 -645 -307 -132 -16 -392 -6 -504 20 -487 112 -760 432
-772 906 l-3 100 215 0 215 0 6 -105 c10 -164 54 -266 159 -369 136 -134 354
-197 592 -171 173 19 289 70 388 171 105 106 147 233 137 411 -5 89 -9 109
-41 174 -43 86 -91 131 -191 179 -129 62 -165 67 -535 74 l-335 6 -3 246 -2
247 505 297 c481 283 505 299 505 326 l0 29 -772 2 -773 3 -3 180 c-1 98 0
185 2 192 4 11 197 13 1008 11 l1003 -3 3 -291z m2400 5 c2 -263 1 -287 -15
-301 -10 -8 -175 -108 -368 -223 -192 -114 -403 -239 -468 -278 -107 -63 -118
-73 -115 -96 l3 -26 170 -7 c296 -11 483 -79 643 -232 156 -149 223 -346 209
-616 -14 -249 -87 -421 -246 -580 -196 -195 -464 -290 -819 -290 -218 0 -392
36 -559 115 -163 77 -277 173 -369 311 -100 150 -145 303 -148 494 l-1 115
210 0 210 0 7 -85 c17 -189 55 -280 162 -385 81 -79 161 -124 283 -156 109
-29 316 -30 424 -1 294 78 451 311 410 605 -20 144 -89 241 -219 306 -134 68
-173 73 -542 80 l-335 6 0 249 0 248 503 297 c469 276 502 298 502 323 l0 28
-772 2 -773 3 -3 180 c-1 98 0 185 2 192 4 11 197 13 1008 11 l1003 -3 3 -286z
m3092 268 c190 -47 298 -104 410 -217 93 -93 134 -159 172 -280 20 -65 23 -95
23 -230 0 -170 -11 -222 -66 -332 -56 -111 -199 -237 -327 -287 -43 -17 -47
-22 -50 -55 -2 -26 1 -36 11 -36 8 0 57 -21 108 -47 171 -85 287 -231 324
-408 20 -93 19 -286 -1 -383 -45 -219 -172 -380 -378 -482 -120 -59 -228 -87
-379 -101 -65 -6 -414 -9 -837 -7 l-725 3 0 195 0 195 193 3 192 2 0 1050 0
1050 -192 2 -193 3 -3 180 c-1 98 0 185 3 193 4 11 150 12 827 9 718 -3 831
-6 888 -20z m1450 -1022 c5 -978 6 -1043 24 -1095 62 -185 181 -305 361 -366
105 -36 314 -45 444 -20 223 42 384 186 448 402 16 54 18 145 23 1089 l5 1030
220 0 220 0 3 -920 c3 -988 -2 -1138 -42 -1297 -93 -368 -353 -606 -758 -695
-119 -26 -476 -26 -598 0 -374 80 -628 289 -737 607 -63 185 -63 180 -63 1291
0 553 3 1009 7 1013 4 3 104 5 222 4 l216 -3 5 -1040z m2665 -400 l0 -1440
-220 0 -220 0 -3 1430 c-1 787 0 1436 3 1443 3 10 53 12 222 10 l218 -3 0
-1440z m943 203 l2 -1238 693 -2 692 -3 0 -200 0 -200 -910 0 -910 0 -3 1430
c-1 787 0 1436 3 1443 3 10 53 12 217 10 l213 -3 3 -1237z m3082 1215 c532
-116 798 -424 850 -988 13 -141 13 -716 0 -863 -45 -501 -270 -803 -701 -940
-195 -63 -253 -66 -979 -67 l-655 0 0 195 0 195 193 3 192 2 0 1050 0 1050
-192 2 -193 3 -3 180 c-1 98 0 185 3 193 4 11 124 13 697 9 654 -4 698 -5 788
-24z m3075 -173 l0 -195 -685 -5 -685 -5 -3 -412 -2 -413 627 -2 628 -3 0
-200 0 -200 -627 -3 -628 -2 0 -420 0 -420 698 -2 697 -3 3 -191 c2 -153 0
-193 -11 -203 -11 -8 -250 -10 -918 -9 l-904 3 -3 1430 c-1 787 0 1436 3 1443
3 10 190 12 907 10 l903 -3 0 -195z m1791 185 c124 -20 213 -49 319 -103 72
-37 108 -64 181 -137 75 -74 98 -105 132 -175 23 -47 46 -107 52 -135 35 -152
30 -368 -11 -502 -51 -165 -184 -311 -353 -389 -51 -23 -56 -28 -56 -58 0 -32
1 -33 50 -39 107 -13 219 -93 259 -186 36 -84 40 -151 38 -656 l-2 -490 -220
0 -220 0 -5 490 c-5 452 -6 493 -24 527 -24 49 -76 94 -123 107 -24 7 -211 11
-508 11 l-470 0 0 -567 0 -568 -220 0 -220 0 -3 1430 c-1 787 0 1436 3 1443 7
19 1277 17 1401 -3z m-15252 -2282 c59 -22 128 -80 160 -136 50 -87 57 -221
17 -313 -26 -58 -95 -130 -156 -162 -45 -24 -61 -27 -155 -27 -121 0 -162 15
-238 89 -53 50 -76 92 -92 170 -28 138 32 286 144 355 83 52 218 62 320 24z"/>
<path d="M17170 3385 l0 -405 328 0 c356 0 417 7 512 55 76 38 142 109 170
181 33 84 34 253 1 335 -30 78 -89 142 -164 179 -108 53 -167 60 -524 60
l-323 0 0 -405z"/>
<path d="M17170 2145 l0 -415 343 0 c275 0 354 3 402 15 133 35 224 104 271
209 26 56 29 71 29 181 0 135 -9 174 -62 252 -59 88 -161 142 -307 162 -43 6
-212 11 -377 11 l-299 0 0 -415z"/>
<path d="M25550 2761 l0 -1033 258 5 c228 4 265 7 332 26 179 53 300 150 369
295 74 155 74 157 79 667 3 424 2 462 -17 553 -57 278 -216 436 -496 492 -39
8 -170 17 -297 21 l-228 6 0 -1032z"/>
<path d="M30100 3326 l0 -466 358 0 c480 0 561 11 680 90 102 68 158 177 169
329 17 248 -78 409 -287 483 -63 22 -76 23 -492 26 l-428 3 0 -465z"/>
</g>
</svg>
